<svg width="223" height="223" viewBox="0 0 223 223" fill="none" xmlns="http://www.w3.org/2000/svg">
<path d="M125.807 56.0241L120.404 57.246L148.948 63.6293L125.911 70.4076L96.9144 62.5585L90.4079 64.0289L125.807 73.971L161.415 64.0777L125.807 56.0241Z" fill="#998787"/>
<path d="M156.815 69.9755V102.745L133.198 114.478V76.5378L128.03 77.9733V125.598L161.982 105.99V68.5377L156.815 69.9755Z" fill="#998787"/>
<path d="M89.6297 68.4331V77.1719H93.5764C94.7216 77.1719 95.6484 78.0988 95.6484 79.244C95.6484 80.3868 94.7216 81.3137 93.5764 81.3137H74.4216C73.6062 81.3137 72.9465 81.9757 72.9465 82.7911C72.9465 83.6064 73.6062 84.2661 74.4216 84.2661H101.795C102.938 84.2661 103.865 85.1953 103.865 86.3381C103.865 87.481 102.938 88.4079 101.795 88.4079H83.474C82.6586 88.4079 81.9989 89.0699 81.9989 89.8852C81.9989 90.7006 82.6586 91.3626 83.474 91.3626H97.5137C98.6566 91.3626 99.5834 92.2895 99.5834 93.4323C99.5834 94.5752 98.6566 95.5044 97.5137 95.5044H86.9258C86.1105 95.5044 85.4508 96.1641 85.4508 96.9794C85.4508 97.7948 86.1105 98.4568 86.9258 98.4568H106.113C107.256 98.4568 108.183 99.3836 108.183 100.527C108.183 101.672 107.256 102.599 106.113 102.599H89.6297V105.99L123.581 125.598V77.9687L89.6297 68.4331Z" fill="#F1F1F1"/>
<path d="M83.1116 101.328H70.9953C70.2078 101.328 69.569 101.967 69.569 102.757C69.569 103.544 70.2078 104.185 70.9953 104.185H83.1116C83.9014 104.185 84.5402 103.544 84.5402 102.757C84.5402 101.967 83.9014 101.328 83.1116 101.328ZM77.0535 90.9143C77.0535 90.1269 76.4147 89.4857 75.6272 89.4857H63.5085C62.7211 89.4857 62.0823 90.1269 62.0823 90.9143C62.0823 91.7018 62.7211 92.3429 63.5085 92.3429H75.6272C76.4147 92.3429 77.0535 91.7018 77.0535 90.9143ZM86.4892 73.4646H74.3728C73.5854 73.4646 72.9466 74.1034 72.9466 74.8932C72.9466 75.6806 73.5854 76.3194 74.3728 76.3194H86.4892C87.279 76.3194 87.9178 75.6806 87.9178 74.8932C87.9178 74.1034 87.279 73.4646 86.4892 73.4646Z" fill="#F1F1F1"/>
<path d="M154.035 85.2882V85.2836C154.035 85.1233 153.93 84.9769 153.717 84.8538L150.841 83.2138C150.822 83.2022 150.794 83.1976 150.778 83.186L150.771 81.4972C150.767 79.9199 150.132 78.6586 149.036 78.0384C147.935 77.4158 146.495 77.518 145.087 78.3148C142.55 79.7504 140.569 83.1186 140.578 85.9827L140.585 88.1524L137.644 89.8156C137.41 89.9503 137.305 90.1315 137.333 90.3011C137.329 90.2894 137.322 90.2732 137.322 90.2569L137.363 102.508C137.363 102.547 137.375 102.587 137.387 102.626C137.387 102.626 137.387 102.633 137.391 102.633C137.433 102.745 137.531 102.854 137.679 102.942L140.557 104.582C140.643 104.633 140.746 104.666 140.857 104.696C140.897 104.708 140.936 104.717 140.978 104.724C141.029 104.736 141.075 104.736 141.122 104.74C141.461 104.775 141.826 104.729 142.09 104.582L153.758 97.9806C153.97 97.8575 154.074 97.6995 154.074 97.5416L154.035 85.2882ZM142.862 86.8655L142.857 85.9781C142.85 83.9084 144.395 81.2881 146.23 80.2475C146.915 79.8619 147.519 79.7666 147.9 79.9827C148.269 80.1917 148.488 80.7446 148.488 81.5018L148.495 83.6784L142.862 86.8655Z" fill="#F1F1F1"/>
<path d="M137.324 90.2569L137.363 102.508C137.368 102.668 137.473 102.824 137.682 102.94L140.555 104.582C140.978 104.824 141.665 104.824 142.088 104.582L153.758 97.9783C153.97 97.8552 154.077 97.6996 154.077 97.5393L154.035 85.2859C154.035 85.4438 153.928 85.6041 153.714 85.7249L142.049 92.3266C141.621 92.5682 140.938 92.5682 140.513 92.3266L137.637 90.6867C137.428 90.5682 137.324 90.4126 137.324 90.2569Z" fill="#F1F1F1"/>
<path d="M147.816 94.4939C147.798 94.408 147.828 94.2988 147.898 94.2129C148.334 93.6461 148.634 92.9236 148.634 92.2802C148.623 91.8992 148.513 91.5973 148.334 91.4114C148.195 91.4416 148.056 91.4997 147.907 91.588C147.022 92.0851 146.304 93.3046 146.304 94.2988C146.304 94.9446 146.604 95.3348 147.041 95.4022C147.11 95.4115 147.141 95.4812 147.131 95.588L146.504 99.0422L148.595 97.8529L147.816 94.4939Z" fill="black"/>
<path d="M137.642 89.8179C137.219 90.0572 137.217 90.4474 137.637 90.689L140.513 92.3266C140.938 92.5682 141.624 92.5682 142.049 92.3266L153.714 85.7226C154.139 85.4833 154.142 85.0931 153.719 84.8515L150.843 83.2138C150.42 82.9746 149.735 82.9746 149.31 83.2138L137.642 89.8179Z" fill="#F1F1F1"/>
<path d="M150.781 85.3602C150.79 85.5298 150.681 85.704 150.448 85.8388C150 86.0896 149.275 86.0896 148.829 85.8388C148.569 85.6901 148.46 85.4903 148.499 85.2975L148.49 81.5019C148.485 80.7446 148.272 80.1917 147.898 79.9804C147.519 79.7667 146.913 79.8642 146.228 80.2498C144.395 81.2858 142.848 83.9107 142.857 85.9758L142.866 89.8411C142.866 90.0061 142.757 90.171 142.534 90.3011C142.088 90.5566 141.361 90.5566 140.915 90.3011C140.655 90.1547 140.546 89.9573 140.588 89.7645L140.578 85.9805C140.569 83.1186 142.553 79.7527 145.089 78.3125C146.492 77.5157 147.935 77.4182 149.038 78.0407C150.132 78.6609 150.767 79.9176 150.771 81.4972L150.781 85.3602Z" fill="#F1F1F1"/>
<path d="M137.637 90.6867L140.513 92.3266C140.783 92.48 141.154 92.5241 141.503 92.4823V104.743C141.166 104.775 140.813 104.729 140.555 104.582L137.682 102.94C137.473 102.824 137.368 102.668 137.363 102.508L137.324 90.2569C137.324 90.4126 137.428 90.5682 137.637 90.6867Z" fill="#F1F1F1"/>
<path d="M148.704 94.689C148.683 94.6124 148.713 94.5055 148.783 94.4173C149.22 93.8505 149.519 93.128 149.519 92.4846C149.51 91.6553 149.013 91.2349 148.334 91.4114C148.513 91.5972 148.623 91.8992 148.634 92.2802C148.634 92.9236 148.334 93.6461 147.898 94.2129C147.828 94.2988 147.798 94.408 147.816 94.4939L148.595 97.8505L149.48 98.0573L148.704 94.689Z" fill="#F1F1F1"/>
<path d="M148.595 97.8505V97.8529L146.504 99.0422L146.365 99.8227L149.48 98.0573L148.595 97.8505Z" fill="#F1F1F1"/>
</svg>
